<svg xmlns="http://www.w3.org/2000/svg" viewBox="0 0 128 128">
  <circle cx="64" cy="64" r="60" fill="#4285f4" />
  <circle cx="64" cy="64" r="55" fill="#fff" />
  <circle cx="64" cy="64" r="52" fill="#4285f4" />
  
  <!-- Globe grid lines -->
  <path d="M64 12 A 52 52 0 0 1 64 116 A 52 52 0 0 1 64 12" fill="none" stroke="#fff" stroke-width="1.5" />
  <path d="M64 12 A 52 52 0 0 0 64 116 A 52 52 0 0 0 64 12" fill="none" stroke="#fff" stroke-width="1.5" />
  <path d="M12 64 L 116 64" stroke="#fff" stroke-width="1.5" />
  <path d="M20 40 L 108 40" stroke="#fff" stroke-width="1.5" />
  <path d="M20 88 L 108 88" stroke="#fff" stroke-width="1.5" />

  <!-- Language Symbol - "T" -->
  <path d="M44 52 L 84 52" stroke="#fff" stroke-width="8" stroke-linecap="round" />
  <path d="M64 52 L 64 88" stroke="#fff" stroke-width="8" stroke-linecap="round" />
</svg>
